<svg id="Layer_1" data-name="Layer 1" xmlns="http://www.w3.org/2000/svg" viewBox="0 0 158.83 200.6"><defs><style>.cls-1{fill:#fff;}</style></defs><g id="vWrIau.tif"><path class="cls-1" d="M238.27,412.33l-13.48.7-.34-1.61c2.22-.75,4.41-1.6,6.66-2.23,1.59-.45,3.56-.18,4.82-1,1.57-1.07,2.57-3,3.82-4.5-1.52-.86-3-2.24-4.59-2.49-5.14-.79-10.35-1.15-15.53-1.68l0-2.09c4.53,0,9.05-.06,13.58,0,2.15,0,4.37.74,6.4.34,1.28-.25,2.27-2,3.39-3.05-1-.92-1.82-2.35-3-2.68-4.44-1.28-9-2.2-13.52-4.27a13,13,0,0,1,3.32-.55,24.7,24.7,0,0,1,6.85,1.16c6.39,2.54,10.41.35,13.89-5.27,2.32-3.73,6-6.65,9-10,3.79-4.15,3.27-6.62-1.36-9.81a9.93,9.93,0,0,1-4-5.28,49.88,49.88,0,0,1,3.45-31.6c2.78-6.28,7.77-6.36,11.74-.6a54.29,54.29,0,0,1,9.26,26.52c.26,3.08-2.26,6.39-3.89,10.55,16.13-6.4,32.26-6.41,48.8.11-8.05-14.57-1.11-26,5.52-37,3.77-6.27,8.69-5.65,11.82,1.08,4.62,9.93,4.93,20.58,3.21,31.21-.31,1.9-2.37,4-4.18,5.09-4.68,2.85-5.2,5.86-1.56,9.65a165.81,165.81,0,0,1,12.09,13.75c1.82,2.38,3.43,3.05,6.25,2.45,4.77-1,9.62-1.67,14.44-2.48.13.66.27,1.31.4,2-3.7.84-7.43,1.57-11.09,2.55-2.24.6-5.87.64-4.76,4.11.44,1.35,4,2.35,6.09,2.38,5.48.06,11-.51,16.44-.83.08.84.15,1.68.22,2.52-5.38.54-10.78,1-16.13,1.69-1.37.18-2.61,1.34-3.91,2.05.94,1.6,1.56,3.6,2.91,4.68,1.15.93,3.16.74,4.76,1.17,2.49.66,5,1.43,7.42,2.15l-.2,1.25h-13a72.93,72.93,0,0,0,2.66,6.82c13.48,26.11,12.23,51.4-5.6,74.84-12.39,16.29-29.41,25.61-50,27.64-27.89,2.75-51-6.8-67.53-29.16s-17.92-46.8-5.23-71.8C235.81,418.39,236.76,415.82,238.27,412.33Zm113.6,50c1.62-25.55-20.42-52.06-52.6-52.1-29.76,0-53.5,21-53.72,51.9-.22,30.64,23.51,52,53.26,52.41C328.37,514.89,353.47,490.4,351.87,462.31ZM275,390.94a9.11,9.11,0,0,0-9-8.7,8.7,8.7,0,0,0-8.26,8.84,9,9,0,0,0,8.46,8.72A8.92,8.92,0,0,0,275,390.94Zm64.91-.15c-.08-5.24-3.44-8.71-8.27-8.55-5.1.17-8.61,3.61-8.59,8.41,0,5,4,9.19,8.66,9A8.77,8.77,0,0,0,339.86,390.79Zm-50.19.12c5.8,4.5,14.82,4.35,18.44,0C303.58,387,294.94,386.94,289.67,390.91Z" transform="translate(-219.63 -321.63)"/><path class="cls-1" d="M339.07,448.32c-6.94-4.89-13.66-7.15-21.05-3.64-.87-4.16,3.33-8,8.92-8.59C333,435.43,338.75,440.62,339.07,448.32Z" transform="translate(-219.63 -321.63)"/><path class="cls-1" d="M287.75,441.91c1-6.54,5.19-9.92,11.19-9.94,5.55,0,10.17,3.85,11,10.06C302.57,438,295.26,437.93,287.75,441.91Z" transform="translate(-219.63 -321.63)"/><path class="cls-1" d="M281,444.83c-8.35-3.12-15.31-1.61-21.95,2.93,0-6.13,3.83-10.54,9.35-11.56C273.15,435.32,278.29,438.4,281,444.83Z" transform="translate(-219.63 -321.63)"/><path class="cls-1" d="M266.62,386.56c1.37,2,2.93,3.32,2.78,4.39a4.13,4.13,0,0,1-3.08,2.71c-1,0-2.69-1.86-2.73-2.94S265.16,388.44,266.62,386.56Z" transform="translate(-219.63 -321.63)"/><path class="cls-1" d="M335.78,391.07c-1.95,1.28-3.2,2.76-4.31,2.65s-2.16-1.75-3.23-2.72c1.13-1.13,2.11-2.87,3.44-3.18C332.54,387.62,333.89,389.49,335.78,391.07Z" transform="translate(-219.63 -321.63)"/></g></svg>